<svg width="13" height="18" viewBox="0 0 13 18" fill="none" xmlns="http://www.w3.org/2000/svg">
<path d="M11.8009 2.71847H8.66198C9.14776 3.31635 9.48407 4.02633 9.70827 4.81105H11.8009C11.913 4.81105 12.0251 4.88579 12.0998 4.96052C12.1745 5.03526 12.2493 5.14736 12.2493 5.25946V6.15628C12.2493 6.30575 12.1745 6.41786 12.0998 6.49259C12.0251 6.56733 11.913 6.60469 11.8009 6.60469H9.85774C9.78301 8.13676 9.25986 9.36989 8.28831 10.3041C7.31675 11.2383 6.08362 11.6867 4.58892 11.6867H4.10314L10.1193 16.8808C10.2688 17.0302 10.3435 17.1797 10.2688 17.3665C10.1941 17.5908 10.0446 17.6655 9.82038 17.6655H7.54096C7.42885 17.6655 7.31675 17.6281 7.24202 17.5534L0.441122 11.6867C0.329019 11.6119 0.291652 11.4998 0.291652 11.3504V10.0425C0.291652 9.93041 0.329019 9.8183 0.403754 9.74357C0.478489 9.66883 0.590592 9.5941 0.740062 9.5941H4.21524C5.14943 9.5941 5.89678 9.33252 6.49466 8.80938C7.05518 8.28623 7.39149 7.53888 7.46622 6.60469H0.740062C0.590592 6.60469 0.478489 6.56733 0.403754 6.49259C0.329019 6.41786 0.291652 6.30575 0.291652 6.15628V5.25946C0.291652 5.14736 0.329019 5.03526 0.403754 4.96052C0.478489 4.88579 0.590592 4.81105 0.740062 4.81105H7.20465C6.98044 4.25054 6.60677 3.80213 6.08362 3.50319C5.56048 3.20425 4.9626 3.01741 4.25261 3.01741H0.740062C0.590592 3.01741 0.478489 2.98004 0.403754 2.90531C0.329019 2.83057 0.291652 2.71847 0.291652 2.569V1.37324C0.291652 1.26113 0.329019 1.14903 0.403754 1.0743C0.478489 0.999561 0.590592 0.924826 0.740062 0.924826H11.8009C11.913 0.924826 12.0251 0.999561 12.0998 1.0743C12.1745 1.14903 12.2493 1.26113 12.2493 1.37324V2.27006C12.2493 2.41953 12.1745 2.53163 12.0998 2.60637C12.0251 2.6811 11.913 2.71847 11.8009 2.71847Z" fill="#E5DFD9"/>
</svg>
